<svg xmlns="http://www.w3.org/2000/svg" viewBox="0 0 600 400" font-family="Segoe UI, Arial, sans-serif">
  <!-- Particle Filter box (top-left) -->
  <rect x="20" y="20" width="230" height="90" rx="10" fill="#4A90D9" stroke="#2C5F8A" stroke-width="2"/>
  <text x="135" y="48" text-anchor="middle" fill="white" font-size="15" font-weight="bold">Particle Filter</text>
  <text x="135" y="70" text-anchor="middle" fill="#D4E6F9" font-size="12">publishes nav_msgs/Odometry</text>
  <text x="135" y="90" text-anchor="middle" fill="#D4E6F9" font-size="12">on /pf/pose/odom</text>

  <!-- Arrow 1: top-left to top-right -->
  <line x1="250" y1="65" x2="350" y2="65" stroke="#666" stroke-width="2.5" marker-end="url(#arrow)"/>
  <rect x="256" y="35" width="88" height="24" rx="5" fill="#E8E8E8" stroke="#CCC" stroke-width="1"/>
  <text x="300" y="52" text-anchor="middle" fill="#555" font-size="11" font-weight="bold">subscribes</text>

  <!-- Waypoint Logger box (top-right) -->
  <rect x="350" y="20" width="230" height="90" rx="10" fill="#5CB85C" stroke="#3D8B3D" stroke-width="2"/>
  <text x="465" y="48" text-anchor="middle" fill="white" font-size="15" font-weight="bold">Waypoint Logger</text>
  <text x="465" y="70" text-anchor="middle" fill="#D4F0D4" font-size="12">waypoint_logger.py</text>
  <text x="465" y="90" text-anchor="middle" fill="#D4F0D4" font-size="12">subscriber node</text>

  <!-- Arrow 2: top-right down to bottom-right -->
  <line x1="465" y1="110" x2="465" y2="260" stroke="#666" stroke-width="2.5" marker-end="url(#arrow)"/>
  <rect x="472" y="169" width="82" height="24" rx="5" fill="#E8E8E8" stroke="#CCC" stroke-width="1"/>
  <text x="513" y="186" text-anchor="middle" fill="#555" font-size="11" font-weight="bold">writes CSV</text>

  <!-- CSV file box (bottom-right) -->
  <rect x="350" y="260" width="230" height="90" rx="10" fill="#F0AD4E" stroke="#C78D3E" stroke-width="2"/>
  <text x="465" y="290" text-anchor="middle" fill="white" font-size="15" font-weight="bold">waypoints.csv</text>
  <text x="465" y="312" text-anchor="middle" fill="#FDE8C8" font-size="12">x, y, z, w per row</text>
  <text x="465" y="332" text-anchor="middle" fill="#FDE8C8" font-size="12">offline data file</text>

  <!-- Arrow 3: bottom-right to bottom-left -->
  <line x1="350" y1="305" x2="250" y2="305" stroke="#666" stroke-width="2.5" marker-end="url(#arrow)"/>
  <rect x="258" y="277" width="82" height="24" rx="5" fill="#E8E8E8" stroke="#CCC" stroke-width="1"/>
  <text x="299" y="294" text-anchor="middle" fill="#555" font-size="11" font-weight="bold">reads CSV</text>

  <!-- Pure Pursuit box (bottom-left) -->
  <rect x="20" y="260" width="230" height="90" rx="10" fill="#D9534F" stroke="#A94442" stroke-width="2"/>
  <text x="135" y="288" text-anchor="middle" fill="white" font-size="15" font-weight="bold">Pure Pursuit</text>
  <text x="135" y="310" text-anchor="middle" fill="#F2DEDE" font-size="12">publishes AckermannDriveStamped</text>
  <text x="135" y="330" text-anchor="middle" fill="#F2DEDE" font-size="12">on /drive</text>

  <!-- Arrow marker definition -->
  <defs>
    <marker id="arrow" markerWidth="12" markerHeight="8" refX="11" refY="4" orient="auto">
      <polygon points="0 0, 12 4, 0 8" fill="#666"/>
    </marker>
  </defs>
</svg>
