<svg xmlns="http://www.w3.org/2000/svg" viewBox="0 0 820 120" font-family="Segoe UI, Arial, sans-serif">
  <!-- Particle Filter box -->
  <rect x="10" y="30" width="180" height="60" rx="8" fill="#4A90D9" stroke="#2C5F8A" stroke-width="2"/>
  <text x="100" y="55" text-anchor="middle" fill="white" font-size="14" font-weight="bold">Particle Filter</text>
  <text x="100" y="75" text-anchor="middle" fill="#D4E6F9" font-size="11">/pf/pose/odom</text>

  <!-- Arrow 1 -->
  <line x1="190" y1="60" x2="250" y2="60" stroke="#666" stroke-width="2" marker-end="url(#arrow)"/>
  <text x="220" y="50" text-anchor="middle" fill="#888" font-size="10">poses</text>

  <!-- Waypoint Logger box -->
  <rect x="250" y="30" width="180" height="60" rx="8" fill="#5CB85C" stroke="#3D8B3D" stroke-width="2"/>
  <text x="340" y="55" text-anchor="middle" fill="white" font-size="14" font-weight="bold">Waypoint Logger</text>
  <text x="340" y="75" text-anchor="middle" fill="#D4F0D4" font-size="11">waypoint_logger.py</text>

  <!-- Arrow 2 -->
  <line x1="430" y1="60" x2="490" y2="60" stroke="#666" stroke-width="2" marker-end="url(#arrow)"/>
  <text x="460" y="50" text-anchor="middle" fill="#888" font-size="10">writes</text>

  <!-- CSV file box -->
  <rect x="490" y="30" width="140" height="60" rx="8" fill="#F0AD4E" stroke="#C78D3E" stroke-width="2"/>
  <text x="560" y="55" text-anchor="middle" fill="white" font-size="14" font-weight="bold">waypoints.csv</text>
  <text x="560" y="75" text-anchor="middle" fill="#FDE8C8" font-size="11">x, y, z, w</text>

  <!-- Arrow 3 -->
  <line x1="630" y1="60" x2="690" y2="60" stroke="#666" stroke-width="2" marker-end="url(#arrow)"/>
  <text x="660" y="50" text-anchor="middle" fill="#888" font-size="10">reads</text>

  <!-- Pure Pursuit box -->
  <rect x="690" y="30" width="120" height="60" rx="8" fill="#D9534F" stroke="#A94442" stroke-width="2"/>
  <text x="750" y="55" text-anchor="middle" fill="white" font-size="14" font-weight="bold">Pure Pursuit</text>
  <text x="750" y="75" text-anchor="middle" fill="#F2DEDE" font-size="11">autonomous drive</text>

  <!-- Arrow marker definition -->
  <defs>
    <marker id="arrow" markerWidth="10" markerHeight="7" refX="9" refY="3.5" orient="auto">
      <polygon points="0 0, 10 3.5, 0 7" fill="#666"/>
    </marker>
  </defs>
</svg>
