<svg xmlns="http://www.w3.org/2000/svg" viewBox="0 0 900 520" font-family="Arial, Helvetica, sans-serif">
  <defs>
    <marker id="arrow" markerWidth="10" markerHeight="7" refX="9" refY="3.5" orient="auto">
      <polygon points="0 0, 10 3.5, 0 7" fill="#555"/>
    </marker>
    <marker id="arrow-blue" markerWidth="10" markerHeight="7" refX="9" refY="3.5" orient="auto">
      <polygon points="0 0, 10 3.5, 0 7" fill="#2563eb"/>
    </marker>
    <marker id="arrow-green" markerWidth="10" markerHeight="7" refX="9" refY="3.5" orient="auto">
      <polygon points="0 0, 10 3.5, 0 7" fill="#16a34a"/>
    </marker>
  </defs>

  <!-- Background -->
  <rect width="900" height="520" rx="8" fill="#fafafa" stroke="#ddd" stroke-width="1"/>

  <!-- Title -->
  <text x="450" y="35" text-anchor="middle" font-size="18" font-weight="bold" fill="#1e293b">Monte Carlo Localization (MCL) — Particle Filter Overview</text>

  <!-- ===== INPUTS (left side) ===== -->
  <text x="80" y="75" text-anchor="middle" font-size="13" font-weight="bold" fill="#64748b">INPUTS</text>

  <!-- LiDAR -->
  <rect x="20" y="90" width="120" height="45" rx="6" fill="#dbeafe" stroke="#2563eb" stroke-width="1.5"/>
  <text x="80" y="110" text-anchor="middle" font-size="12" font-weight="bold" fill="#1e40af">LiDAR</text>
  <text x="80" y="125" text-anchor="middle" font-size="10" fill="#3b82f6">/scan</text>

  <!-- Odometry -->
  <rect x="20" y="150" width="120" height="45" rx="6" fill="#dbeafe" stroke="#2563eb" stroke-width="1.5"/>
  <text x="80" y="170" text-anchor="middle" font-size="12" font-weight="bold" fill="#1e40af">Odometry</text>
  <text x="80" y="185" text-anchor="middle" font-size="10" fill="#3b82f6">/vesc/odom</text>

  <!-- Map -->
  <rect x="20" y="210" width="120" height="45" rx="6" fill="#dbeafe" stroke="#2563eb" stroke-width="1.5"/>
  <text x="80" y="230" text-anchor="middle" font-size="12" font-weight="bold" fill="#1e40af">Map</text>
  <text x="80" y="245" text-anchor="middle" font-size="10" fill="#3b82f6">/map (via service)</text>

  <!-- Initial Pose -->
  <rect x="20" y="270" width="120" height="45" rx="6" fill="#fef3c7" stroke="#d97706" stroke-width="1.5"/>
  <text x="80" y="290" text-anchor="middle" font-size="12" font-weight="bold" fill="#92400e">Initial Pose</text>
  <text x="80" y="305" text-anchor="middle" font-size="10" fill="#b45309">2D Pose Estimate</text>

  <!-- ===== MCL LOOP (center) ===== -->
  <rect x="210" y="70" width="430" height="370" rx="12" fill="#f0fdf4" stroke="#16a34a" stroke-width="2" stroke-dasharray="6,3"/>
  <text x="425" y="95" text-anchor="middle" font-size="14" font-weight="bold" fill="#15803d">MCL Update Cycle (every odometry message)</text>

  <!-- Step 1: Predict (Motion Model) — top-left -->
  <rect x="240" y="115" width="170" height="55" rx="8" fill="#fff" stroke="#8b5cf6" stroke-width="2"/>
  <text x="325" y="138" text-anchor="middle" font-size="13" font-weight="bold" fill="#6d28d9">1. Predict</text>
  <text x="325" y="155" text-anchor="middle" font-size="10" fill="#78716c">Apply odometry + noise</text>
  <text x="325" y="166" text-anchor="middle" font-size="10" fill="#78716c">(motion model)</text>

  <!-- Step 2: Weight (Sensor Model) — top-right -->
  <rect x="440" y="115" width="170" height="55" rx="8" fill="#fff" stroke="#ef4444" stroke-width="2"/>
  <text x="525" y="138" text-anchor="middle" font-size="13" font-weight="bold" fill="#dc2626">2. Weight</text>
  <text x="525" y="155" text-anchor="middle" font-size="10" fill="#78716c">Score vs real LiDAR scan</text>
  <text x="525" y="166" text-anchor="middle" font-size="10" fill="#78716c">(sensor model + RangeLibc)</text>

  <!-- Arrow 1→2 -->
  <line x1="410" y1="142" x2="437" y2="142" stroke="#555" stroke-width="1.5" marker-end="url(#arrow)"/>

  <!-- Step 3: Resample — bottom-right -->
  <rect x="440" y="200" width="170" height="55" rx="8" fill="#fff" stroke="#f59e0b" stroke-width="2"/>
  <text x="525" y="223" text-anchor="middle" font-size="13" font-weight="bold" fill="#b45309">3. Resample</text>
  <text x="525" y="240" text-anchor="middle" font-size="10" fill="#78716c">Keep good particles</text>
  <text x="525" y="251" text-anchor="middle" font-size="10" fill="#78716c">discard bad ones</text>

  <!-- Arrow 2→3 -->
  <line x1="525" y1="170" x2="525" y2="197" stroke="#555" stroke-width="1.5" marker-end="url(#arrow)"/>

  <!-- Step 4: Normalize + Publish — bottom-left -->
  <rect x="240" y="200" width="170" height="55" rx="8" fill="#fff" stroke="#16a34a" stroke-width="2"/>
  <text x="325" y="223" text-anchor="middle" font-size="13" font-weight="bold" fill="#15803d">4. Publish</text>
  <text x="325" y="240" text-anchor="middle" font-size="10" fill="#78716c">Normalize weights</text>
  <text x="325" y="251" text-anchor="middle" font-size="10" fill="#78716c">+ publish best pose</text>

  <!-- Arrow 3→4 -->
  <line x1="437" y1="227" x2="413" y2="227" stroke="#555" stroke-width="1.5" marker-end="url(#arrow)"/>

  <!-- Arrow 4→1 (loop back) -->
  <path d="M 240,227 Q 215,227 215,170 Q 215,142 237,142" fill="none" stroke="#555" stroke-width="1.5" marker-end="url(#arrow)"/>
  <text x="200" y="182" text-anchor="middle" font-size="9" fill="#555" transform="rotate(-90,200,182)">loop</text>

  <!-- Expected Pose box -->
  <rect x="310" y="290" width="200" height="50" rx="8" fill="#ecfdf5" stroke="#16a34a" stroke-width="2"/>
  <text x="410" y="312" text-anchor="middle" font-size="13" font-weight="bold" fill="#15803d">Expected Pose</text>
  <text x="410" y="328" text-anchor="middle" font-size="10" fill="#78716c">Weighted average of all particles</text>

  <!-- Arrow Normalize → Expected Pose -->
  <line x1="325" y1="255" x2="370" y2="288" stroke="#16a34a" stroke-width="1.5" marker-end="url(#arrow-green)"/>

  <!-- Particles label in cycle -->
  <text x="425" y="378" text-anchor="middle" font-size="11" fill="#64748b" font-style="italic">4000 particles × [x, y, θ] updated every cycle</text>

  <!-- RangeLibc callout -->
  <rect x="310" y="395" width="230" height="35" rx="5" fill="#fef2f2" stroke="#fca5a5" stroke-width="1"/>
  <text x="425" y="415" text-anchor="middle" font-size="10" fill="#991b1b">RangeLibc (GPU): simulates LiDAR for all particles</text>

  <!-- ===== INPUT ARROWS ===== -->
  <!-- Odometry → Predict (top-left) -->
  <path d="M 140,172 Q 200,172 200,142 L 237,142" fill="none" stroke="#2563eb" stroke-width="1.5" marker-end="url(#arrow-blue)"/>

  <!-- LiDAR → Weight (top-right, route above cycle) -->
  <path d="M 140,112 Q 190,112 190,80 L 525,80 L 525,113" fill="none" stroke="#2563eb" stroke-width="1.5" marker-end="url(#arrow-blue)"/>
  <text x="360" y="74" text-anchor="middle" font-size="9" fill="#2563eb">downsampled</text>

  <!-- Map → RangeLibc -->
  <path d="M 140,232 Q 190,232 190,412 L 307,412" fill="none" stroke="#2563eb" stroke-width="1.5" marker-end="url(#arrow-blue)"/>

  <!-- Initial Pose arrow (dashed — one-time action, not continuous data) -->
  <path d="M 140,292 Q 200,292 200,310 L 307,310" fill="none" stroke="#d97706" stroke-width="1.5" stroke-dasharray="4,3"/>
  <text x="225" y="303" font-size="9" fill="#d97706">one-time</text>

  <!-- ===== OUTPUTS (right side) ===== -->
  <text x="810" y="75" text-anchor="middle" font-size="13" font-weight="bold" fill="#64748b">OUTPUTS</text>

  <!-- /pf/pose/odom -->
  <rect x="730" y="90" width="150" height="45" rx="6" fill="#dcfce7" stroke="#16a34a" stroke-width="1.5"/>
  <text x="805" y="110" text-anchor="middle" font-size="12" font-weight="bold" fill="#15803d">Localized Pose</text>
  <text x="805" y="125" text-anchor="middle" font-size="10" fill="#16a34a">/pf/pose/odom</text>

  <!-- TF -->
  <rect x="730" y="150" width="150" height="45" rx="6" fill="#dcfce7" stroke="#16a34a" stroke-width="1.5"/>
  <text x="805" y="170" text-anchor="middle" font-size="12" font-weight="bold" fill="#15803d">TF Transform</text>
  <text x="805" y="185" text-anchor="middle" font-size="10" fill="#16a34a">map → laser</text>

  <!-- Particles viz -->
  <rect x="730" y="210" width="150" height="45" rx="6" fill="#dcfce7" stroke="#16a34a" stroke-width="1.5"/>
  <text x="805" y="230" text-anchor="middle" font-size="12" font-weight="bold" fill="#15803d">Particle Cloud</text>
  <text x="805" y="245" text-anchor="middle" font-size="10" fill="#16a34a">/pf/viz/particles</text>

  <!-- Inferred pose viz -->
  <rect x="730" y="270" width="150" height="45" rx="6" fill="#dcfce7" stroke="#16a34a" stroke-width="1.5"/>
  <text x="805" y="290" text-anchor="middle" font-size="12" font-weight="bold" fill="#15803d">Best Pose</text>
  <text x="805" y="305" text-anchor="middle" font-size="10" fill="#16a34a">/pf/viz/inferred_pose</text>

  <!-- ===== OUTPUT ARROWS ===== -->
  <!-- All output arrows route right from Expected Pose, then go down the right edge
       outside the MCL box to avoid crossing over any boxes -->

  <!-- Expected Pose → right edge at y=315, then up to each output -->
  <!-- Trunk: Expected Pose right side → exit MCL box -->
  <path d="M 510,315 L 660,315" fill="none" stroke="#16a34a" stroke-width="2"/>

  <!-- Branch up to Localized Pose -->
  <path d="M 660,315 L 660,112 L 727,112" fill="none" stroke="#16a34a" stroke-width="1.5" marker-end="url(#arrow-green)"/>

  <!-- Branch up to TF Transform -->
  <path d="M 660,315 L 660,172 L 727,172" fill="none" stroke="#16a34a" stroke-width="1.5" marker-end="url(#arrow-green)"/>

  <!-- Branch up to Best Pose -->
  <path d="M 660,315 L 660,292 L 727,292" fill="none" stroke="#16a34a" stroke-width="1.5" marker-end="url(#arrow-green)"/>

  <!-- Particle Cloud — comes from the Publish step (all particles visualized) -->
  <!-- Route right from Publish, pass between Resample and Expected Pose, then up to output -->
  <path d="M 410,270 L 630,270 L 630,232 L 727,232" fill="none" stroke="#16a34a" stroke-width="1.5" marker-end="url(#arrow-green)"/>
  <!-- Short stub down from Publish box -->
  <line x1="410" y1="255" x2="410" y2="270" stroke="#16a34a" stroke-width="1.5"/>

  <!-- Small dots on the trunk to show branching -->
  <circle cx="660" cy="315" r="3" fill="#16a34a"/>
  <circle cx="660" cy="172" r="3" fill="#16a34a"/>
  <circle cx="660" cy="112" r="3" fill="#16a34a"/>

  <!-- Legend -->
  <line x1="30" y1="465" x2="60" y2="465" stroke="#2563eb" stroke-width="1.5"/>
  <text x="65" y="469" font-size="10" fill="#64748b">Continuous data flow</text>

  <line x1="200" y1="465" x2="230" y2="465" stroke="#d97706" stroke-width="1.5" stroke-dasharray="4,3"/>
  <text x="235" y="469" font-size="10" fill="#64748b">One-time (user action)</text>

  <line x1="390" y1="465" x2="420" y2="465" stroke="#16a34a" stroke-width="1.5"/>
  <text x="425" y="469" font-size="10" fill="#64748b">Published outputs</text>

  <!-- Footer -->
  <text x="450" y="495" text-anchor="middle" font-size="10" fill="#94a3b8">Particle Filter — Monte Carlo Localization for F1TENTH RoboRacer</text>
  <text x="450" y="510" text-anchor="middle" font-size="9" fill="#cbd5e1">Based on f1tenth/particle_filter by Hongrui Zheng &amp; Corey Walsh</text>
</svg>
