<svg xmlns="http://www.w3.org/2000/svg" viewBox="0 0 900 580" font-family="Arial, Helvetica, sans-serif">
  <defs>
    <marker id="arrow" markerWidth="10" markerHeight="7" refX="9" refY="3.5" orient="auto">
      <polygon points="0 0, 10 3.5, 0 7" fill="#555"/>
    </marker>
    <marker id="arrow-blue" markerWidth="10" markerHeight="7" refX="9" refY="3.5" orient="auto">
      <polygon points="0 0, 10 3.5, 0 7" fill="#2563eb"/>
    </marker>
    <marker id="arrow-green" markerWidth="10" markerHeight="7" refX="9" refY="3.5" orient="auto">
      <polygon points="0 0, 10 3.5, 0 7" fill="#16a34a"/>
    </marker>
  </defs>

  <!-- Background -->
  <rect width="900" height="580" rx="8" fill="#fafafa" stroke="#ddd" stroke-width="1"/>

  <!-- Title -->
  <text x="450" y="35" text-anchor="middle" font-size="18" font-weight="bold" fill="#1e293b">Monte Carlo Localization (MCL) — Particle Filter Overview</text>

  <!-- ===== INPUTS (left side) ===== -->
  <text x="80" y="75" text-anchor="middle" font-size="13" font-weight="bold" fill="#64748b">INPUTS</text>

  <!-- Odometry (top) -->
  <rect x="20" y="90" width="120" height="45" rx="6" fill="#dbeafe" stroke="#2563eb" stroke-width="1.5"/>
  <text x="80" y="110" text-anchor="middle" font-size="12" font-weight="bold" fill="#1e40af">Odometry</text>
  <text x="80" y="125" text-anchor="middle" font-size="10" fill="#3b82f6">/vesc/odom</text>

  <!-- LiDAR (below odometry) -->
  <rect x="20" y="150" width="120" height="45" rx="6" fill="#dbeafe" stroke="#2563eb" stroke-width="1.5"/>
  <text x="80" y="170" text-anchor="middle" font-size="12" font-weight="bold" fill="#1e40af">LiDAR</text>
  <text x="80" y="185" text-anchor="middle" font-size="10" fill="#3b82f6">/scan</text>

  <!-- Map -->
  <rect x="20" y="210" width="120" height="45" rx="6" fill="#dbeafe" stroke="#2563eb" stroke-width="1.5"/>
  <text x="80" y="230" text-anchor="middle" font-size="12" font-weight="bold" fill="#1e40af">Map</text>
  <text x="80" y="245" text-anchor="middle" font-size="10" fill="#3b82f6">/map (via service)</text>

  <!-- Initial Pose -->
  <rect x="20" y="350" width="120" height="45" rx="6" fill="#fef3c7" stroke="#d97706" stroke-width="1.5"/>
  <text x="80" y="370" text-anchor="middle" font-size="12" font-weight="bold" fill="#92400e">Initial Pose</text>
  <text x="80" y="385" text-anchor="middle" font-size="10" fill="#b45309">2D Pose Estimate</text>

  <!-- ===== MCL LOOP (center) ===== -->
  <rect x="210" y="70" width="440" height="220" rx="12" fill="#f0fdf4" stroke="#16a34a" stroke-width="2" stroke-dasharray="6,3"/>
  <text x="430" y="95" text-anchor="middle" font-size="14" font-weight="bold" fill="#15803d">MCL Update Cycle (every odometry message)</text>

  <!-- Step 1: Resample — top-left -->
  <rect x="235" y="110" width="175" height="60" rx="8" fill="#fff" stroke="#f59e0b" stroke-width="2"/>
  <text x="322" y="133" text-anchor="middle" font-size="13" font-weight="bold" fill="#b45309">1. Resample</text>
  <text x="322" y="150" text-anchor="middle" font-size="10" fill="#78716c">Keep good particles</text>
  <text x="322" y="162" text-anchor="middle" font-size="10" fill="#78716c">discard bad ones</text>

  <!-- Step 2: Predict (Motion Model) — top-right -->
  <rect x="445" y="110" width="175" height="60" rx="8" fill="#fff" stroke="#8b5cf6" stroke-width="2"/>
  <text x="532" y="133" text-anchor="middle" font-size="13" font-weight="bold" fill="#6d28d9">2. Predict</text>
  <text x="532" y="150" text-anchor="middle" font-size="10" fill="#78716c">Apply odometry + noise</text>
  <text x="532" y="162" text-anchor="middle" font-size="10" fill="#78716c">(motion model)</text>

  <!-- Arrow 1→2 -->
  <line x1="410" y1="140" x2="442" y2="140" stroke="#555" stroke-width="1.5" marker-end="url(#arrow)"/>

  <!-- Step 3: Weight (Sensor Model) — bottom-right -->
  <rect x="445" y="200" width="175" height="60" rx="8" fill="#fff" stroke="#ef4444" stroke-width="2"/>
  <text x="532" y="223" text-anchor="middle" font-size="13" font-weight="bold" fill="#dc2626">3. Weight</text>
  <text x="532" y="240" text-anchor="middle" font-size="10" fill="#78716c">Score vs real LiDAR scan</text>
  <text x="532" y="252" text-anchor="middle" font-size="10" fill="#78716c">(sensor model + RangeLibc)</text>

  <!-- Arrow 2→3 -->
  <line x1="532" y1="170" x2="532" y2="197" stroke="#555" stroke-width="1.5" marker-end="url(#arrow)"/>

  <!-- Step 4: Normalize — bottom-left -->
  <rect x="235" y="200" width="175" height="60" rx="8" fill="#fff" stroke="#0ea5e9" stroke-width="2"/>
  <text x="322" y="223" text-anchor="middle" font-size="13" font-weight="bold" fill="#0369a1">4. Normalize</text>
  <text x="322" y="240" text-anchor="middle" font-size="10" fill="#78716c">Weights sum to 1.0</text>
  <text x="322" y="252" text-anchor="middle" font-size="10" fill="#78716c">+ squash factor</text>

  <!-- Arrow 3→4 -->
  <line x1="442" y1="230" x2="413" y2="230" stroke="#555" stroke-width="1.5" marker-end="url(#arrow)"/>

  <!-- Arrow 4→1 (loop back) — runs along left edge of MCL box -->
  <path d="M 235,230 Q 215,230 215,175 Q 215,140 232,140" fill="none" stroke="#555" stroke-width="1.5" marker-end="url(#arrow)"/>
  <text x="222" y="128" text-anchor="middle" font-size="9" fill="#555">loop</text>

  <!-- Particles label -->
  <text x="430" y="280" text-anchor="middle" font-size="10" fill="#64748b" font-style="italic">4000 particles × [x, y, θ] updated every cycle</text>

  <!-- ===== PUBLISH (below MCL loop, like simplified SVG) ===== -->
  <text x="430" y="315" text-anchor="middle" font-size="10" fill="#64748b">after each cycle</text>
  <line x1="430" y1="290" x2="430" y2="322" stroke="#16a34a" stroke-width="1.5" marker-end="url(#arrow-green)"/>

  <rect x="260" y="325" width="340" height="55" rx="8" fill="#ecfdf5" stroke="#16a34a" stroke-width="2"/>
  <text x="430" y="348" text-anchor="middle" font-size="14" font-weight="bold" fill="#15803d">Publish</text>
  <text x="430" y="368" text-anchor="middle" font-size="10" fill="#78716c">Compute weighted average → publish best pose, TF, and particle cloud</text>

  <!-- RangeLibc callout -->
  <rect x="260" y="400" width="340" height="30" rx="5" fill="#fef2f2" stroke="#fca5a5" stroke-width="1"/>
  <text x="430" y="420" text-anchor="middle" font-size="10" fill="#991b1b">RangeLibc (GPU): simulates LiDAR for all particles in the Weight step</text>

  <!-- ===== INPUT ARROWS ===== -->
  <!-- Odometry → Predict (top-right) — straight across, no collision -->
  <path d="M 140,112 L 195,112 L 195,80 L 532,80 L 532,108" fill="none" stroke="#2563eb" stroke-width="1.5" marker-end="url(#arrow-blue)"/>

  <!-- LiDAR → Weight — route below MCL box, then up into Weight from the right -->
  <path d="M 140,172 L 195,172 L 195,280 L 660,280 L 660,230 L 623,230" fill="none" stroke="#2563eb" stroke-width="1.5" marker-end="url(#arrow-blue)"/>
  <text x="430" y="275" text-anchor="middle" font-size="9" fill="#2563eb">downsampled</text>

  <!-- Map → RangeLibc -->
  <path d="M 140,232 L 195,232 L 195,415 L 257,415" fill="none" stroke="#2563eb" stroke-width="1.5" marker-end="url(#arrow-blue)"/>

  <!-- Initial Pose arrow (dashed — one-time action) -->
  <path d="M 140,372 L 195,372 L 195,352 L 257,352" fill="none" stroke="#d97706" stroke-width="1.5" stroke-dasharray="4,3"/>
  <text x="170" y="365" font-size="9" fill="#d97706">one-time</text>

  <!-- ===== OUTPUTS (right side) ===== -->
  <text x="790" y="310" text-anchor="middle" font-size="13" font-weight="bold" fill="#64748b">OUTPUTS</text>

  <!-- /pf/pose/odom -->
  <rect x="720" y="325" width="160" height="40" rx="6" fill="#dcfce7" stroke="#16a34a" stroke-width="1.5"/>
  <text x="800" y="343" text-anchor="middle" font-size="11" font-weight="bold" fill="#15803d">Localized Pose</text>
  <text x="800" y="358" text-anchor="middle" font-size="9" fill="#16a34a">/pf/pose/odom</text>

  <!-- TF -->
  <rect x="720" y="375" width="160" height="40" rx="6" fill="#dcfce7" stroke="#16a34a" stroke-width="1.5"/>
  <text x="800" y="393" text-anchor="middle" font-size="11" font-weight="bold" fill="#15803d">TF Transform</text>
  <text x="800" y="408" text-anchor="middle" font-size="9" fill="#16a34a">map → laser</text>

  <!-- Particles viz -->
  <rect x="720" y="425" width="160" height="40" rx="6" fill="#dcfce7" stroke="#16a34a" stroke-width="1.5"/>
  <text x="800" y="443" text-anchor="middle" font-size="11" font-weight="bold" fill="#15803d">Particle Cloud</text>
  <text x="800" y="458" text-anchor="middle" font-size="9" fill="#16a34a">/pf/viz/particles</text>

  <!-- Inferred pose viz -->
  <rect x="720" y="475" width="160" height="40" rx="6" fill="#dcfce7" stroke="#16a34a" stroke-width="1.5"/>
  <text x="800" y="493" text-anchor="middle" font-size="11" font-weight="bold" fill="#15803d">Best Pose</text>
  <text x="800" y="508" text-anchor="middle" font-size="9" fill="#16a34a">/pf/viz/inferred_pose</text>

  <!-- Output arrows from Publish box -->
  <!-- Trunk right from Publish -->
  <path d="M 600,352 L 670,352" fill="none" stroke="#16a34a" stroke-width="2"/>

  <!-- Branch to each output -->
  <path d="M 670,352 L 670,345 L 717,345" fill="none" stroke="#16a34a" stroke-width="1.5" marker-end="url(#arrow-green)"/>
  <path d="M 670,352 L 670,395 L 717,395" fill="none" stroke="#16a34a" stroke-width="1.5" marker-end="url(#arrow-green)"/>
  <path d="M 670,352 L 670,445 L 717,445" fill="none" stroke="#16a34a" stroke-width="1.5" marker-end="url(#arrow-green)"/>
  <path d="M 670,352 L 670,495 L 717,495" fill="none" stroke="#16a34a" stroke-width="1.5" marker-end="url(#arrow-green)"/>

  <!-- Branch dots -->
  <circle cx="670" cy="352" r="3" fill="#16a34a"/>
  <circle cx="670" cy="395" r="3" fill="#16a34a"/>
  <circle cx="670" cy="445" r="3" fill="#16a34a"/>

  <!-- Legend -->
  <line x1="30" y1="540" x2="60" y2="540" stroke="#2563eb" stroke-width="1.5"/>
  <text x="65" y="544" font-size="10" fill="#64748b">Continuous data flow</text>

  <line x1="220" y1="540" x2="250" y2="540" stroke="#d97706" stroke-width="1.5" stroke-dasharray="4,3"/>
  <text x="255" y="544" font-size="10" fill="#64748b">One-time (user action)</text>

  <line x1="420" y1="540" x2="450" y2="540" stroke="#16a34a" stroke-width="1.5"/>
  <text x="455" y="544" font-size="10" fill="#64748b">Published outputs</text>

  <!-- Footer -->
  <text x="450" y="568" text-anchor="middle" font-size="9" fill="#cbd5e1">Based on f1tenth/particle_filter by Hongrui Zheng &amp; Corey Walsh</text>
</svg>
