<svg xmlns="http://www.w3.org/2000/svg" viewBox="0 0 500 380" font-family="Arial, Helvetica, sans-serif">
  <defs>
    <marker id="arrow" markerWidth="10" markerHeight="7" refX="9" refY="3.5" orient="auto">
      <polygon points="0 0, 10 3.5, 0 7" fill="#555"/>
    </marker>
    <marker id="arrow-green" markerWidth="10" markerHeight="7" refX="9" refY="3.5" orient="auto">
      <polygon points="0 0, 10 3.5, 0 7" fill="#16a34a"/>
    </marker>
  </defs>

  <!-- Background -->
  <rect width="500" height="380" rx="8" fill="#fafafa" stroke="#ddd" stroke-width="1"/>

  <!-- Title -->
  <text x="250" y="28" text-anchor="middle" font-size="15" font-weight="bold" fill="#1e293b">How the Particle Filter Works</text>

  <!-- MCL cycle box -->
  <rect x="40" y="45" width="310" height="210" rx="12" fill="#f0fdf4" stroke="#16a34a" stroke-width="2" stroke-dasharray="6,3"/>
  <text x="195" y="68" text-anchor="middle" font-size="11" font-weight="bold" fill="#15803d">MCL Cycle (repeats ~30-40 Hz)</text>

  <!-- Step 1: Resample (top-left) -->
  <rect x="60" y="82" width="120" height="55" rx="8" fill="#fff" stroke="#f59e0b" stroke-width="2"/>
  <text x="120" y="104" text-anchor="middle" font-size="12" font-weight="bold" fill="#b45309">1. Resample</text>
  <text x="120" y="120" text-anchor="middle" font-size="9" fill="#78716c">Keep good particles</text>
  <text x="120" y="131" text-anchor="middle" font-size="9" fill="#78716c">discard bad ones</text>

  <!-- Step 2: Predict (top-right) -->
  <rect x="210" y="82" width="120" height="55" rx="8" fill="#fff" stroke="#8b5cf6" stroke-width="2"/>
  <text x="270" y="104" text-anchor="middle" font-size="12" font-weight="bold" fill="#6d28d9">2. Predict</text>
  <text x="270" y="120" text-anchor="middle" font-size="9" fill="#78716c">Move particles using</text>
  <text x="270" y="131" text-anchor="middle" font-size="9" fill="#78716c">odometry + noise</text>

  <!-- Arrow 1→2 -->
  <line x1="180" y1="109" x2="207" y2="109" stroke="#555" stroke-width="1.5" marker-end="url(#arrow)"/>

  <!-- Step 3: Weight (bottom-right) -->
  <rect x="210" y="162" width="120" height="55" rx="8" fill="#fff" stroke="#ef4444" stroke-width="2"/>
  <text x="270" y="184" text-anchor="middle" font-size="12" font-weight="bold" fill="#dc2626">3. Weight</text>
  <text x="270" y="200" text-anchor="middle" font-size="9" fill="#78716c">Score each particle</text>
  <text x="270" y="211" text-anchor="middle" font-size="9" fill="#78716c">vs real LiDAR scan</text>

  <!-- Arrow 2→3 -->
  <line x1="270" y1="137" x2="270" y2="160" stroke="#555" stroke-width="1.5" marker-end="url(#arrow)"/>

  <!-- Step 4: Normalize (bottom-left) -->
  <rect x="60" y="162" width="120" height="55" rx="8" fill="#fff" stroke="#0ea5e9" stroke-width="2"/>
  <text x="120" y="184" text-anchor="middle" font-size="12" font-weight="bold" fill="#0369a1">4. Normalize</text>
  <text x="120" y="200" text-anchor="middle" font-size="9" fill="#78716c">Weights sum to 1.0</text>
  <text x="120" y="211" text-anchor="middle" font-size="9" fill="#78716c">+ squash factor</text>

  <!-- Arrow 3→4 -->
  <line x1="207" y1="189" x2="183" y2="189" stroke="#555" stroke-width="1.5" marker-end="url(#arrow)"/>

  <!-- Loop arrow 4→1 -->
  <path d="M 60,189 Q 45,189 45,145 Q 45,109 58,109" fill="none" stroke="#555" stroke-width="1.5" marker-end="url(#arrow)"/>
  <text x="32" y="150" text-anchor="middle" font-size="8" fill="#555" transform="rotate(-90,32,150)">loop</text>

  <!-- Publish section (outside MCL loop) -->
  <rect x="60" y="280" width="270" height="50" rx="8" fill="#ecfdf5" stroke="#16a34a" stroke-width="2"/>
  <text x="195" y="302" text-anchor="middle" font-size="12" font-weight="bold" fill="#15803d">Publish</text>
  <text x="195" y="318" text-anchor="middle" font-size="9" fill="#78716c">Compute weighted average → publish best pose + TF</text>

  <!-- Arrow from MCL cycle to Publish -->
  <line x1="195" y1="255" x2="195" y2="278" stroke="#16a34a" stroke-width="1.5" marker-end="url(#arrow-green)"/>
  <text x="240" y="268" font-size="8" fill="#64748b">after each cycle</text>

  <!-- Output labels -->
  <path d="M 330,305 L 355,305" fill="none" stroke="#16a34a" stroke-width="1.5" marker-end="url(#arrow-green)"/>
  <text x="420" y="300" text-anchor="middle" font-size="9" fill="#16a34a" font-weight="bold">/pf/pose/odom</text>
  <text x="420" y="314" text-anchor="middle" font-size="9" fill="#16a34a">+ TF (map → laser)</text>

  <!-- Footer -->
  <text x="250" y="360" text-anchor="middle" font-size="9" fill="#94a3b8">See "Understanding the Particle Filter Code" for the full diagram</text>
</svg>
