<svg xmlns="http://www.w3.org/2000/svg" viewBox="0 0 820 340" font-family="Arial, Helvetica, sans-serif">
  <defs>
    <marker id="arrow" markerWidth="10" markerHeight="7" refX="9" refY="3.5" orient="auto">
      <polygon points="0 0, 10 3.5, 0 7" fill="#555"/>
    </marker>
    <marker id="arrow-blue" markerWidth="10" markerHeight="7" refX="9" refY="3.5" orient="auto">
      <polygon points="0 0, 10 3.5, 0 7" fill="#2563eb"/>
    </marker>
  </defs>

  <!-- Background -->
  <rect width="820" height="340" rx="8" fill="#fafafa" stroke="#ddd" stroke-width="1"/>

  <!-- Title -->
  <text x="410" y="30" text-anchor="middle" font-size="16" font-weight="bold" fill="#1e293b">MCL Cycle with Inputs</text>
  <text x="410" y="48" text-anchor="middle" font-size="10" fill="#64748b">Each input feeds a specific step in the cycle</text>

  <!-- ===== MCL LOOP (center) ===== -->
  <rect x="120" y="60" width="580" height="230" rx="12" fill="#f0fdf4" stroke="#16a34a" stroke-width="2" stroke-dasharray="6,3"/>
  <text x="410" y="82" text-anchor="middle" font-size="13" font-weight="bold" fill="#15803d">MCL Update Cycle (every odometry message)</text>

  <!-- Step 1: Resample — top-left -->
  <rect x="145" y="95" width="180" height="60" rx="8" fill="#fff" stroke="#f59e0b" stroke-width="2"/>
  <text x="235" y="118" text-anchor="middle" font-size="13" font-weight="bold" fill="#b45309">1. Resample</text>
  <text x="235" y="135" text-anchor="middle" font-size="10" fill="#78716c">Keep good particles</text>
  <text x="235" y="147" text-anchor="middle" font-size="10" fill="#78716c">discard bad ones</text>

  <!-- Step 2: Predict — top-right -->
  <rect x="495" y="95" width="180" height="60" rx="8" fill="#fff" stroke="#8b5cf6" stroke-width="2"/>
  <text x="585" y="118" text-anchor="middle" font-size="13" font-weight="bold" fill="#6d28d9">2. Predict</text>
  <text x="585" y="135" text-anchor="middle" font-size="10" fill="#78716c">Apply odometry + noise</text>
  <text x="585" y="147" text-anchor="middle" font-size="10" fill="#78716c">(motion model)</text>

  <!-- Arrow 1→2 -->
  <line x1="325" y1="125" x2="492" y2="125" stroke="#555" stroke-width="1.5" marker-end="url(#arrow)"/>

  <!-- Step 3: Weight — bottom-right -->
  <rect x="495" y="185" width="180" height="60" rx="8" fill="#fff" stroke="#ef4444" stroke-width="2"/>
  <text x="585" y="208" text-anchor="middle" font-size="13" font-weight="bold" fill="#dc2626">3. Weight</text>
  <text x="585" y="225" text-anchor="middle" font-size="10" fill="#78716c">Score vs real LiDAR scan</text>
  <text x="585" y="237" text-anchor="middle" font-size="10" fill="#78716c">(sensor model + RangeLibc)</text>

  <!-- Arrow 2→3 -->
  <line x1="585" y1="155" x2="585" y2="182" stroke="#555" stroke-width="1.5" marker-end="url(#arrow)"/>

  <!-- Step 4: Normalize — bottom-left -->
  <rect x="145" y="185" width="180" height="60" rx="8" fill="#fff" stroke="#0ea5e9" stroke-width="2"/>
  <text x="235" y="208" text-anchor="middle" font-size="13" font-weight="bold" fill="#0369a1">4. Normalize</text>
  <text x="235" y="225" text-anchor="middle" font-size="10" fill="#78716c">Weights sum to 1.0</text>
  <text x="235" y="237" text-anchor="middle" font-size="10" fill="#78716c">+ squash factor</text>

  <!-- Arrow 3→4 -->
  <line x1="492" y1="215" x2="328" y2="215" stroke="#555" stroke-width="1.5" marker-end="url(#arrow)"/>

  <!-- Loop arrow (straight up, dashed green) -->
  <line x1="235" y1="185" x2="235" y2="158" stroke="#16a34a" stroke-width="2" stroke-dasharray="5,3" marker-end="url(#arrow)"/>
  <text x="255" y="175" text-anchor="start" font-size="10" font-weight="bold" fill="#16a34a">loop</text>

  <!-- Particles label -->
  <text x="410" y="270" text-anchor="middle" font-size="10" fill="#64748b" font-style="italic">4000 particles × [x, y, θ] updated every cycle</text>

  <!-- ===== INPUTS (blue boxes) ===== -->

  <!-- Odometry → Predict -->
  <rect x="710" y="100" width="100" height="45" rx="6" fill="#dbeafe" stroke="#2563eb" stroke-width="1.5"/>
  <text x="760" y="120" text-anchor="middle" font-size="11" font-weight="bold" fill="#1e40af">Odometry</text>
  <text x="760" y="135" text-anchor="middle" font-size="9" fill="#3b82f6">/vesc/odom</text>
  <path d="M 707,125 L 678,125" fill="none" stroke="#2563eb" stroke-width="1.5" marker-end="url(#arrow-blue)"/>

  <!-- LiDAR → Weight -->
  <rect x="710" y="190" width="100" height="45" rx="6" fill="#dbeafe" stroke="#2563eb" stroke-width="1.5"/>
  <text x="760" y="210" text-anchor="middle" font-size="11" font-weight="bold" fill="#1e40af">LiDAR</text>
  <text x="760" y="225" text-anchor="middle" font-size="9" fill="#3b82f6">/scan (downsampled)</text>
  <path d="M 707,215 L 678,215" fill="none" stroke="#2563eb" stroke-width="1.5" marker-end="url(#arrow-blue)"/>

  <!-- Map → Weight (below, arrow up) -->
  <rect x="700" y="255" width="115" height="55" rx="6" fill="#dbeafe" stroke="#2563eb" stroke-width="1.5"/>
  <text x="757" y="275" text-anchor="middle" font-size="11" font-weight="bold" fill="#1e40af">Map</text>
  <text x="757" y="288" text-anchor="middle" font-size="8" fill="#3b82f6">/map (via service)</text>
  <text x="757" y="301" text-anchor="middle" font-size="8" fill="#3b82f6">loaded into RangeLibc</text>
  <path d="M 697,280 L 660,280 L 660,248" fill="none" stroke="#2563eb" stroke-width="1.5" marker-end="url(#arrow-blue)"/>

  <!-- Initial Pose → Resample (left side) -->
  <rect x="10" y="100" width="100" height="45" rx="6" fill="#fef3c7" stroke="#d97706" stroke-width="1.5"/>
  <text x="60" y="120" text-anchor="middle" font-size="11" font-weight="bold" fill="#92400e">Initial Pose</text>
  <text x="60" y="135" text-anchor="middle" font-size="9" fill="#b45309">2D Pose Estimate</text>
  <path d="M 110,125 L 142,125" fill="none" stroke="#d97706" stroke-width="1.5" stroke-dasharray="4,3" marker-end="url(#arrow)"/>
  <text x="118" y="118" font-size="8" fill="#d97706">one-time</text>

  <!-- Legend -->
  <rect x="30" y="300" width="14" height="10" rx="3" fill="#dbeafe" stroke="#2563eb" stroke-width="1"/>
  <text x="50" y="309" font-size="9" fill="#64748b">Input (data into MCL)</text>

  <rect x="200" y="300" width="14" height="10" rx="3" fill="#fef3c7" stroke="#d97706" stroke-width="1"/>
  <text x="220" y="309" font-size="9" fill="#64748b">One-time (user action)</text>

  <line x1="400" y1="305" x2="420" y2="305" stroke="#555" stroke-width="1.5" marker-end="url(#arrow)"/>
  <text x="427" y="309" font-size="9" fill="#64748b">MCL cycle step</text>

  <line x1="540" y1="305" x2="560" y2="305" stroke="#16a34a" stroke-width="2" stroke-dasharray="5,3"/>
  <text x="567" y="309" font-size="9" fill="#64748b">Loop (repeat cycle)</text>
</svg>
